<svg width="23" height="20" viewBox="0 0 23 20" fill="none" xmlns="http://www.w3.org/2000/svg">
<g id="Group">
<path id="Vector" d="M22.8535 2.96003C22.0185 3.33003 21.1215 3.58003 20.1785 3.69303C21.1515 3.11082 21.8794 2.19449 22.2265 1.11503C21.3123 1.65802 20.3118 2.04022 19.2685 2.24503C18.5668 1.49589 17.6375 0.999352 16.6248 0.8325C15.6121 0.665648 14.5726 0.837818 13.6677 1.32228C12.7628 1.80674 12.0432 2.57639 11.6206 3.51173C11.198 4.44707 11.096 5.49578 11.3305 6.49503C9.47815 6.40202 7.66609 5.92058 6.01189 5.08193C4.35768 4.24329 2.8983 3.06619 1.72846 1.62703C1.32846 2.31703 1.09846 3.11703 1.09846 3.96903C1.09801 4.73602 1.28689 5.49127 1.64834 6.16776C2.00979 6.84425 2.53262 7.42106 3.17046 7.84703C2.43074 7.82349 1.70733 7.62361 1.06046 7.26403V7.32403C1.06039 8.39977 1.43249 9.4424 2.11364 10.275C2.79479 11.1076 3.74303 11.679 4.79746 11.892C4.11124 12.0777 3.3918 12.1051 2.69346 11.972C2.99096 12.8976 3.57046 13.7071 4.35083 14.287C5.1312 14.8669 6.07338 15.1882 7.04546 15.206C5.39529 16.5014 3.35735 17.2041 1.25946 17.201C0.887842 17.2011 0.516537 17.1794 0.147461 17.136C2.27694 18.5052 4.7558 19.2318 7.28746 19.229C15.8575 19.229 20.5425 12.131 20.5425 5.97503C20.5425 5.77503 20.5375 5.57303 20.5285 5.37303C21.4398 4.714 22.2264 3.89792 22.8515 2.96303L22.8535 2.96003Z" fill="#1D1D1D"/>
</g>
</svg>
